<svg width="30" height="30" viewBox="0 0 30 30" fill="none" xmlns="http://www.w3.org/2000/svg">
<circle cx="15" cy="15" r="15" fill="white"/>
<path d="M7.68225 11.1405L14.6175 6.98249C14.7341 6.91255 14.8674 6.87561 15.0034 6.87561C15.1393 6.87561 15.2727 6.91255 15.3892 6.98249L22.3177 11.1412C22.3733 11.1746 22.4194 11.2217 22.4513 11.2781C22.4832 11.3345 22.5 11.3982 22.5 11.463V21C22.5 21.1989 22.421 21.3897 22.2803 21.5303C22.1397 21.671 21.9489 21.75 21.75 21.75H8.25C8.05109 21.75 7.86032 21.671 7.71967 21.5303C7.57902 21.3897 7.5 21.1989 7.5 21V11.4622C7.49999 11.3974 7.51677 11.3337 7.54871 11.2773C7.58065 11.221 7.62666 11.1738 7.68225 11.1405ZM19.7595 12.183L15.0457 16.2622L10.2352 12.1785L9.26475 13.3215L15.0547 18.2377L20.7405 13.3177L19.7595 12.183Z" fill="#6854FC"/>
</svg>
