<svg width="30" height="30" viewBox="0 0 30 30" fill="none" xmlns="http://www.w3.org/2000/svg">
<circle cx="15" cy="15" r="15" fill="white"/>
<path d="M19.2428 17.7427L15 21.9855L10.7573 17.7427C9.91817 16.9036 9.34675 15.8345 9.11527 14.6706C8.88378 13.5068 9.00262 12.3004 9.45676 11.204C9.91089 10.1077 10.6799 9.17065 11.6666 8.51137C12.6533 7.8521 13.8133 7.50021 15 7.50021C16.1867 7.50021 17.3467 7.8521 18.3334 8.51137C19.3201 9.17065 20.0891 10.1077 20.5433 11.204C20.9974 12.3004 21.1162 13.5068 20.8847 14.6706C20.6533 15.8345 20.0818 16.9036 19.2428 17.7427ZM9.75 22.5H20.25V24H9.75V22.5Z" fill="#6854FC"/>
</svg>
