<svg width="30" height="30" viewBox="0 0 30 30" fill="none" xmlns="http://www.w3.org/2000/svg">
<circle cx="15" cy="15" r="15" fill="white"/>
<path d="M23.4329 18.1154C24.1896 16.1074 24.1896 13.8926 23.4329 11.8846C23.4221 11.8439 23.4075 11.8042 23.3893 11.7662C22.7356 10.0711 21.5846 8.6133 20.0874 7.58422C18.5902 6.55514 16.8167 6.00289 15 6H14.9958C13.1777 6.00385 11.4034 6.55776 9.90606 7.58891C8.4087 8.62005 7.25842 10.0802 6.60644 11.7773C6.59321 11.8065 6.5821 11.8365 6.57321 11.8673C5.80893 13.8858 5.80893 16.1141 6.57321 18.1327C6.5821 18.1634 6.59321 18.1935 6.60644 18.2227C7.25569 19.9214 8.40512 21.3831 9.90281 22.4147C11.4005 23.4463 13.176 23.9991 14.9945 24.0002C16.8131 24.0012 18.5892 23.4504 20.0881 22.4206C21.587 21.3908 22.7381 19.9303 23.3893 18.2324C23.4075 18.1948 23.4221 18.1556 23.4329 18.1154V18.1154ZM12.6703 17.2292C12.3546 15.7598 12.3546 14.2401 12.6703 12.7707H17.3296C17.6453 14.2401 17.6453 15.7598 17.3296 17.2292H12.6703ZM16.9502 18.6138C16.5015 19.9205 15.8428 21.1454 15 22.2401C14.1583 21.145 13.5006 19.9203 13.0525 18.6138H16.9502ZM7.38459 15C7.38522 14.2442 7.49886 13.4929 7.72174 12.7707H11.2601C10.9823 14.2439 10.9823 15.756 11.2601 17.2292H7.72174C7.49886 16.5071 7.38522 15.7557 7.38459 15V15ZM13.0525 11.3861C13.5016 10.0795 14.1606 8.85468 15.0034 7.75984C15.845 8.85481 16.5026 10.0796 16.9502 11.3861H13.0525ZM18.7453 12.7707H22.2837C22.7305 14.2233 22.7305 15.7766 22.2837 17.2292H18.7419C19.0206 15.7561 19.0206 14.2438 18.7419 12.7707H18.7453ZM21.7042 11.3861H18.4158C18.003 10.0185 17.3791 8.72374 16.5666 7.54869C17.6493 7.77831 18.6691 8.24039 19.5556 8.90298C20.4421 9.56556 21.174 10.4128 21.7008 11.3861H21.7042ZM13.4333 7.54869C12.6206 8.72369 11.9964 10.0185 11.5834 11.3861H8.29843C8.82524 10.4127 9.55728 9.56538 10.4439 8.90279C11.3305 8.2402 12.3505 7.77817 13.4333 7.54869V7.54869ZM8.29843 18.6138H11.5834C11.9964 19.9815 12.6206 21.2763 13.4333 22.4513C12.3505 22.2218 11.3305 21.7598 10.4439 21.0972C9.55728 20.4346 8.82524 19.5872 8.29843 18.6138V18.6138ZM16.5666 22.4513C17.3791 21.2762 18.003 19.9814 18.4158 18.6138H21.7008C21.174 19.5871 20.4421 20.4344 19.5556 21.097C18.6691 21.7596 17.6493 22.2216 16.5666 22.4513V22.4513Z" fill="#6854FC"/>
</svg>
