<svg width="100" height="100" viewBox="0 0 100 100" fill="none" xmlns="http://www.w3.org/2000/svg">
<circle cx="50" cy="50" r="50" fill="#E4F2FA"/>
<path d="M44.3359 58.3047C48.1953 58.3125 50.5 55.2656 50.5 50.0156C50.5 44.7969 48.1797 41.7812 44.3359 41.7812C40.4922 41.7812 38.1797 44.7891 38.1719 50.0156C38.1719 55.2578 40.4766 58.3047 44.3359 58.3047ZM44.3359 55.8594C42.3438 55.8594 41.0938 53.8594 41.1016 50.0156C41.1094 46.2031 42.3516 44.1953 44.3359 44.1953C46.3281 44.1953 47.5703 46.2031 47.5781 50.0156C47.5781 53.8594 46.3359 55.8594 44.3359 55.8594ZM53.5357 58H64.5045V55.5781H57.5357V55.4687L60.2935 52.6641C63.4029 49.6797 64.2623 48.2266 64.2623 46.4219C64.2623 43.7422 62.0826 41.7812 58.8638 41.7812C55.692 41.7812 53.442 43.75 53.442 46.7891H56.1998C56.1998 45.1563 57.231 44.1328 58.8248 44.1328C60.3482 44.1328 61.481 45.0625 61.481 46.5703C61.481 47.9062 60.6685 48.8594 59.0904 50.4609L53.5357 55.9062V58Z" fill="#D07624"/>
</svg>
