<svg width="100" height="100" viewBox="0 0 100 100" fill="none" xmlns="http://www.w3.org/2000/svg">
<circle cx="50" cy="50" r="50" fill="#E4F2FA"/>
<path d="M44.3359 58.3047C48.1953 58.3125 50.5 55.2656 50.5 50.0156C50.5 44.7969 48.1797 41.7812 44.3359 41.7812C40.4922 41.7812 38.1797 44.7891 38.1719 50.0156C38.1719 55.2578 40.4766 58.3047 44.3359 58.3047ZM44.3359 55.8594C42.3438 55.8594 41.0938 53.8594 41.1016 50.0156C41.1094 46.2031 42.3516 44.1953 44.3359 44.1953C46.3281 44.1953 47.5703 46.2031 47.5781 50.0156C47.5781 53.8594 46.3359 55.8594 44.3359 55.8594ZM60.0435 42H57.2857L53.3091 44.5547V47.2109L57.0513 44.8203H57.1451V58H60.0435V42Z" fill="#D07624"/>
</svg>
