<svg width="100" height="100" viewBox="0 0 100 100" fill="none" xmlns="http://www.w3.org/2000/svg">
<circle cx="50" cy="50" r="50" fill="#E4F2FA"/>
<path d="M44.3359 58.3047C48.1953 58.3125 50.5 55.2656 50.5 50.0156C50.5 44.7969 48.1797 41.7812 44.3359 41.7812C40.4922 41.7812 38.1797 44.7891 38.1719 50.0156C38.1719 55.2578 40.4766 58.3047 44.3359 58.3047ZM44.3359 55.8594C42.3438 55.8594 41.0938 53.8594 41.1016 50.0156C41.1094 46.2031 42.3516 44.1953 44.3359 44.1953C46.3281 44.1953 47.5703 46.2031 47.5781 50.0156C47.5781 53.8594 46.3359 55.8594 44.3359 55.8594ZM59.2779 58.2187C62.6998 58.2187 65.192 56.2578 65.1841 53.5547C65.192 51.5547 63.942 50.1172 61.6998 49.7969V49.6719C63.4341 49.2969 64.5982 48.0078 64.5904 46.2109C64.5982 43.7734 62.5201 41.7812 59.3248 41.7812C56.2154 41.7812 53.8091 43.6328 53.7466 46.3125H56.5357C56.5826 44.9687 57.8326 44.1328 59.3091 44.1328C60.8013 44.1328 61.7935 45.0391 61.7857 46.3828C61.7935 47.7812 60.6373 48.7109 58.981 48.7109H57.567V50.9453H58.981C61.0045 50.9453 62.2076 51.9609 62.1998 53.4062C62.2076 54.8203 60.981 55.7891 59.2701 55.7891C57.6607 55.7891 56.4185 54.9531 56.3482 53.6484H53.4107C53.4888 56.3516 55.9029 58.2187 59.2779 58.2187Z" fill="#D07624"/>
</svg>
