<svg width="100" height="100" viewBox="0 0 100 100" fill="none" xmlns="http://www.w3.org/2000/svg">
<circle cx="50" cy="50" r="50" fill="#E4F2FA"/>
<path d="M44.3359 58.3047C48.1953 58.3125 50.5 55.2656 50.5 50.0156C50.5 44.7969 48.1797 41.7812 44.3359 41.7812C40.4922 41.7812 38.1797 44.7891 38.1719 50.0156C38.1719 55.2578 40.4766 58.3047 44.3359 58.3047ZM44.3359 55.8594C42.3438 55.8594 41.0938 53.8594 41.1016 50.0156C41.1094 46.2031 42.3516 44.1953 44.3359 44.1953C46.3281 44.1953 47.5703 46.2031 47.5781 50.0156C47.5781 53.8594 46.3359 55.8594 44.3359 55.8594ZM59.3951 58.2187C62.8482 58.2422 65.1685 55.8672 65.1607 52.7031C65.1685 49.6797 63.0123 47.4922 60.2076 47.4922C58.4888 47.4922 56.9732 48.3281 56.2076 49.7031H56.0982C56.106 46.3359 57.3404 44.2891 59.5591 44.2891C60.9341 44.2891 61.8638 45.0859 62.1607 46.3125H65.0123C64.6685 43.7266 62.5826 41.7812 59.5591 41.7812C55.7154 41.7812 53.2857 44.9844 53.2857 50.4531C53.2779 56.3203 56.3248 58.2031 59.3951 58.2187ZM59.3795 55.875C57.6685 55.875 56.4185 54.4609 56.4107 52.7891C56.4263 51.1094 57.7232 49.7031 59.4185 49.7031C61.1138 49.7031 62.356 51.0469 62.3482 52.7656C62.356 54.5156 61.0748 55.875 59.3795 55.875Z" fill="#D07624"/>
</svg>
