<svg width="60" height="60" viewBox="0 0 60 60" fill="none" xmlns="http://www.w3.org/2000/svg">
<rect width="60" height="60" rx="20" fill="#FCEDEE"/>
<path d="M34.2444 34.161L25.9297 36.6189C26.3433 37.4181 26.982 38.0664 27.7489 38.4935V42.9328H26.3326C25.7725 42.9328 25.3212 43.3962 25.3212 43.9664C25.3212 44.5366 25.7736 45 26.3326 45H34.6785C35.2385 45 35.6898 44.5366 35.6898 43.9664C35.6898 43.3962 35.2374 42.9328 34.6785 42.9328H33.2622V37.3454C33.2622 37.3465 34.3198 36.292 34.2444 34.161ZM31.2384 42.9328H29.7726L29.7597 39.056C30.45 39.0384 31.2384 38.7863 31.2384 38.7863V42.9328ZM18.6253 26.4976L21.8123 24.841L25.6486 34.5506L22.1332 35.5897C22.1332 35.5897 21.11 35.9849 20.7148 34.4681L19.0152 35.1528C19.0152 35.1528 18.1827 35.516 17.7023 34.5694L16.0706 30.3315C15.866 29.8009 16.1212 29.201 16.6404 28.9908L18.3367 28.3061C18.3378 28.305 17.6668 26.9962 18.6253 26.4976ZM32.9132 17.324L36.8734 15.1401C37.7965 14.6316 38.294 15.6707 38.294 15.6707L43.718 29.7261C44.0282 30.905 43.0308 31.1053 43.0308 31.1053L38.6742 32.2644C37.6317 32.5418 37.273 31.113 37.273 31.113L27.6024 33.9728L23.6238 23.8999L32.6741 19.1931C32.6741 19.192 31.9256 17.8689 32.9132 17.324Z" fill="#B85A60"/>
</svg>
