<svg width="100" height="100" viewBox="0 0 100 100" fill="none" xmlns="http://www.w3.org/2000/svg">
<circle cx="50" cy="50" r="50" fill="#E4F2FA"/>
<path d="M44.3359 58.3047C48.1953 58.3125 50.5 55.2656 50.5 50.0156C50.5 44.7969 48.1797 41.7812 44.3359 41.7812C40.4922 41.7812 38.1797 44.7891 38.1719 50.0156C38.1719 55.2578 40.4766 58.3047 44.3359 58.3047ZM44.3359 55.8594C42.3438 55.8594 41.0938 53.8594 41.1016 50.0156C41.1094 46.2031 42.3516 44.1953 44.3359 44.1953C46.3281 44.1953 47.5703 46.2031 47.5781 50.0156C47.5781 53.8594 46.3359 55.8594 44.3359 55.8594ZM59.0982 58.2187C62.481 58.2187 64.8404 55.9219 64.8404 52.7422C64.8404 49.6641 62.6998 47.4453 59.7935 47.4453C58.4966 47.4453 57.3482 47.9609 56.7545 48.6641H56.6607L57.1216 44.4219H64.0045V42H54.7232L53.8873 50.25L56.5045 50.6797C57.0435 50.0859 58.0591 49.6875 59.0201 49.6953C60.7779 49.7031 62.0435 51 62.0357 52.8125C62.0435 54.6016 60.8091 55.875 59.0982 55.875C57.6529 55.875 56.4888 54.9609 56.3873 53.6484H53.5748C53.6529 56.3047 55.9732 58.2187 59.0982 58.2187Z" fill="#D07624"/>
</svg>
