<svg width="192" height="84" viewBox="0 0 192 84" fill="none" xmlns="http://www.w3.org/2000/svg">
<path opacity="0.98" d="M147.382 6.49737e-09C139.645 0.0142701 132.044 2.00574 125.327 5.77885C118.609 9.55196 113.005 14.977 109.066 21.5214H116.695C120.343 17.1695 124.924 13.6634 130.111 11.2539C135.298 8.84446 140.963 7.59108 146.7 7.58344C157.029 7.58345 166.934 11.6155 174.237 18.7925C181.54 25.9695 185.643 35.7036 185.643 45.8535C185.636 52.7409 183.736 59.4986 180.146 65.4139C176.556 71.3291 171.408 76.1826 165.245 79.4625V84C173.194 80.5873 179.958 74.9716 184.71 67.8402C189.462 60.7087 191.995 52.3707 192 43.8464C192 38.0883 190.846 32.3867 188.604 27.067C186.362 21.7473 183.075 16.9136 178.932 12.8421C174.789 8.77057 169.87 5.54087 164.457 3.33742C159.044 1.13397 153.242 -9.91174e-05 147.382 6.49737e-09Z" fill="url(#paint0_linear_708_533)"/>
<path d="M2.052 54.1998V28.9998H9.036L19.116 45.4518H15.444L25.236 28.9998H32.22L32.292 54.1998H24.552L24.48 40.6638H25.704L19.008 51.9318H15.264L8.28 40.6638H9.792V54.1998H2.052ZM48.4597 54.7758C44.5957 54.7758 41.5837 53.7318 39.4237 51.6438C37.2637 49.5558 36.1837 46.6278 36.1837 42.8598V28.9998H44.6797V42.6078C44.6797 44.5278 45.0277 45.8958 45.7237 46.7118C46.4197 47.5038 47.3557 47.8998 48.5317 47.8998C49.7317 47.8998 50.6677 47.5038 51.3397 46.7118C52.0357 45.8958 52.3837 44.5278 52.3837 42.6078V28.9998H60.7357V42.8598C60.7357 46.6278 59.6557 49.5558 57.4957 51.6438C55.3357 53.7318 52.3237 54.7758 48.4597 54.7758ZM64.6301 54.1998V28.9998H71.6141L81.6941 45.4518H78.0221L87.8141 28.9998H94.7981L94.8701 54.1998H87.1301L87.0581 40.6638H88.2821L81.5861 51.9318H77.8421L70.8581 40.6638H72.3701V54.1998H64.6301ZM111.038 54.7758C107.174 54.7758 104.162 53.7318 102.002 51.6438C99.8418 49.5558 98.7618 46.6278 98.7618 42.8598V28.9998H107.258V42.6078C107.258 44.5278 107.606 45.8958 108.302 46.7118C108.998 47.5038 109.934 47.8998 111.11 47.8998C112.31 47.8998 113.246 47.5038 113.918 46.7118C114.614 45.8958 114.962 44.5278 114.962 42.6078V28.9998H123.314V42.8598C123.314 46.6278 122.234 49.5558 120.074 51.6438C117.914 53.7318 114.902 54.7758 111.038 54.7758ZM127.208 54.1998V28.9998H134.192L147.008 44.3358H143.768V28.9998H152.048V54.1998H145.064L132.248 38.8638H135.488V54.1998H127.208ZM156.142 54.1998V28.9998H164.638V54.1998H156.142Z" fill="#E5E5E5"/>
<path d="M4.72511 68.6497H10.9891V70.5757H4.72511V68.6497ZM4.90511 74.0497H12.0151V76.0117H2.56511V63.4117H11.7631V65.3737H4.90511V74.0497ZM14.6237 76.0117V63.4117H16.5497L24.4517 73.1137H23.4977V63.4117H25.8197V76.0117H23.8937L15.9917 66.3097H16.9457V76.0117H14.6237ZM31.356 68.6497H37.62V70.5757H31.356V68.6497ZM31.536 74.0497H38.646V76.0117H29.196V63.4117H38.394V65.3737H31.536V74.0497ZM41.2546 76.0117V63.4117H46.4386C47.5546 63.4117 48.5086 63.5917 49.3006 63.9517C50.1046 64.3117 50.7226 64.8277 51.1546 65.4997C51.5866 66.1717 51.8026 66.9697 51.8026 67.8937C51.8026 68.8177 51.5866 69.6157 51.1546 70.2877C50.7226 70.9477 50.1046 71.4577 49.3006 71.8177C48.5086 72.1657 47.5546 72.3397 46.4386 72.3397H42.5506L43.5946 71.2777V76.0117H41.2546ZM49.4986 76.0117L46.3126 71.4397H48.8146L52.0186 76.0117H49.4986ZM43.5946 71.5297L42.5506 70.4137H46.3306C47.3626 70.4137 48.1366 70.1917 48.6526 69.7477C49.1806 69.3037 49.4446 68.6857 49.4446 67.8937C49.4446 67.0897 49.1806 66.4717 48.6526 66.0397C48.1366 65.6077 47.3626 65.3917 46.3306 65.3917H42.5506L43.5946 64.2397V71.5297ZM60.3066 76.1917C59.3226 76.1917 58.4166 76.0357 57.5886 75.7237C56.7726 75.3997 56.0586 74.9497 55.4466 74.3737C54.8346 73.7857 54.3606 73.0957 54.0246 72.3037C53.6886 71.5117 53.5206 70.6477 53.5206 69.7117C53.5206 68.7757 53.6886 67.9117 54.0246 67.1197C54.3606 66.3277 54.8346 65.6437 55.4466 65.0677C56.0706 64.4797 56.7966 64.0297 57.6246 63.7177C58.4526 63.3937 59.3586 63.2317 60.3426 63.2317C61.4106 63.2317 62.3706 63.4057 63.2226 63.7537C64.0866 64.1017 64.8126 64.6117 65.4006 65.2837L63.9246 66.7237C63.4326 66.2317 62.8986 65.8717 62.3226 65.6437C61.7586 65.4037 61.1346 65.2837 60.4506 65.2837C59.7906 65.2837 59.1786 65.3917 58.6146 65.6077C58.0506 65.8237 57.5646 66.1297 57.1566 66.5257C56.7486 66.9217 56.4306 67.3897 56.2026 67.9297C55.9866 68.4697 55.8786 69.0637 55.8786 69.7117C55.8786 70.3477 55.9866 70.9357 56.2026 71.4757C56.4306 72.0157 56.7486 72.4897 57.1566 72.8977C57.5646 73.2937 58.0446 73.5997 58.5966 73.8157C59.1486 74.0317 59.7606 74.1397 60.4326 74.1397C61.0566 74.1397 61.6566 74.0437 62.2326 73.8517C62.8206 73.6477 63.3786 73.3117 63.9066 72.8437L65.2386 74.5897C64.5786 75.1177 63.8106 75.5197 62.9346 75.7957C62.0706 76.0597 61.1946 76.1917 60.3066 76.1917ZM63.0246 74.2837V69.5677H65.2386V74.5897L63.0246 74.2837ZM71.4209 76.0117V71.0257L71.9429 72.4657L66.4709 63.4117H68.9729L73.3649 70.7017H71.9609L76.3889 63.4117H78.6929L73.2209 72.4657L73.7609 71.0257V76.0117H71.4209Z" fill="#E5E5E5"/>
<defs>
<linearGradient id="paint0_linear_708_533" x1="104.556" y1="42.0007" x2="192" y2="42.0007" gradientUnits="userSpaceOnUse">
<stop stop-color="#FFD100"/>
<stop offset="1" stop-color="#FF6600" stop-opacity="0.980392"/>
</linearGradient>
</defs>
</svg>
