<svg width="25" height="25" viewBox="0 0 25 25" fill="none" xmlns="http://www.w3.org/2000/svg">
<g clip-path="url(#clip0_747_456)">
<path d="M12.3853 7.38135C13.7449 7.38135 13.9146 7.38635 14.448 7.41137C14.9809 7.43639 15.3437 7.51996 15.663 7.64406C15.9933 7.77117 16.2715 7.94331 16.5497 8.22104C16.8042 8.47119 17.0011 8.77379 17.1267 9.10777C17.2503 9.42653 17.3344 9.78983 17.3594 10.3228C17.3829 10.8562 17.3894 11.0258 17.3894 12.3855C17.3894 13.7451 17.3844 13.9147 17.3594 14.4482C17.3344 14.9811 17.2503 15.3439 17.1267 15.6632C17.0014 15.9973 16.8045 16.3 16.5497 16.5499C16.2995 16.8043 15.9969 17.0011 15.663 17.1269C15.3442 17.2505 14.9809 17.3345 14.448 17.3596C13.9146 17.3831 13.7449 17.3896 12.3853 17.3896C11.0257 17.3896 10.856 17.3846 10.3226 17.3596C9.78966 17.3345 9.42686 17.2505 9.1076 17.1269C8.77349 17.0015 8.47084 16.8046 8.22087 16.5499C7.96636 16.2998 7.76946 15.9972 7.6439 15.6632C7.51979 15.3444 7.43623 14.9811 7.4112 14.4482C7.38769 13.9147 7.38118 13.7451 7.38118 12.3855C7.38118 11.0258 7.38618 10.8562 7.4112 10.3228C7.43623 9.78933 7.51979 9.42703 7.6439 9.10777C7.76912 8.77358 7.96606 8.4709 8.22087 8.22104C8.47091 7.96644 8.77354 7.76953 9.1076 7.64406C9.42686 7.51996 9.78916 7.43639 10.3226 7.41137C10.856 7.38785 11.0257 7.38135 12.3853 7.38135ZM12.3853 9.88341C11.7217 9.88341 11.0853 10.147 10.6161 10.6162C10.1468 11.0855 9.88324 11.7219 9.88324 12.3855C9.88324 13.049 10.1468 13.6855 10.6161 14.1547C11.0853 14.6239 11.7217 14.8875 12.3853 14.8875C13.0489 14.8875 13.6853 14.6239 14.1545 14.1547C14.6237 13.6855 14.8874 13.049 14.8874 12.3855C14.8874 11.7219 14.6237 11.0855 14.1545 10.6162C13.6853 10.147 13.0489 9.88341 12.3853 9.88341ZM15.638 9.7583C15.638 9.59241 15.5721 9.4333 15.4548 9.316C15.3375 9.19869 15.1784 9.13279 15.0125 9.13279C14.8466 9.13279 14.6875 9.19869 14.5701 9.316C14.4528 9.4333 14.3869 9.59241 14.3869 9.7583C14.3869 9.9242 14.4528 10.0833 14.5701 10.2006C14.6875 10.3179 14.8466 10.3838 15.0125 10.3838C15.1784 10.3838 15.3375 10.3179 15.4548 10.2006C15.5721 10.0833 15.638 9.9242 15.638 9.7583ZM12.3853 10.8842C12.7834 10.8842 13.1653 11.0424 13.4468 11.3239C13.7284 11.6055 13.8865 11.9873 13.8865 12.3855C13.8865 12.7836 13.7284 13.1655 13.4468 13.447C13.1653 13.7285 12.7834 13.8867 12.3853 13.8867C11.9871 13.8867 11.6053 13.7285 11.3238 13.447C11.0422 13.1655 10.8841 12.7836 10.8841 12.3855C10.8841 11.9873 11.0422 11.6055 11.3238 11.3239C11.6053 11.0424 11.9871 10.8842 12.3853 10.8842Z" fill="#56CCF2"/>
</g>
<rect opacity="0.1" width="24.3951" height="24.3951" rx="12.1975" fill="#56CCF2"/>
<defs>
<clipPath id="clip0_747_456">
<rect width="12.0099" height="12.0099" fill="white" transform="translate(6.38025 6.38037)"/>
</clipPath>
</defs>
</svg>
