<svg width="26" height="25" viewBox="0 0 26 25" fill="none" xmlns="http://www.w3.org/2000/svg">
<g clip-path="url(#clip0_747_468)">
<path d="M10.6558 8.88267C10.6557 9.14811 10.5501 9.40262 10.3623 9.59021C10.1745 9.77781 9.91993 9.88313 9.6545 9.88299C9.38906 9.88286 9.13455 9.77729 8.94696 9.58951C8.75936 9.40172 8.65404 9.14711 8.65417 8.88167C8.65431 8.61624 8.75988 8.36173 8.94766 8.17413C9.13545 7.98653 9.39006 7.88122 9.6555 7.88135C9.92093 7.88148 10.1754 7.98705 10.363 8.17484C10.5506 8.36262 10.656 8.61724 10.6558 8.88267ZM10.6858 10.6241H8.6842V16.8893H10.6858V10.6241ZM13.8484 10.6241H11.8568V16.8893H13.8284V13.6016C13.8284 11.77 16.2154 11.5999 16.2154 13.6016V16.8893H18.192V12.921C18.192 9.83345 14.6591 9.94855 13.8284 11.4648L13.8484 10.6241Z" fill="#56CCF2"/>
</g>
<rect opacity="0.1" x="0.80246" width="24.3951" height="24.3951" rx="12.1975" fill="#56CCF2"/>
<defs>
<clipPath id="clip0_747_468">
<rect width="12.0099" height="12.0099" fill="white" transform="translate(7.18292 6.38037)"/>
</clipPath>
</defs>
</svg>
