<svg width="25" height="25" viewBox="0 0 25 25" fill="none" xmlns="http://www.w3.org/2000/svg">
<g clip-path="url(#clip0_747_480)">
<path d="M17.7656 9.63186C17.9943 10.5236 17.9943 12.3851 17.9943 12.3851C17.9943 12.3851 17.9943 14.2467 17.7656 15.1384C17.6385 15.6313 17.2667 16.0191 16.7958 16.1502C15.9406 16.3884 12.9902 16.3884 12.9902 16.3884C12.9902 16.3884 10.0412 16.3884 9.18454 16.1502C8.71165 16.0171 8.34034 15.6298 8.21474 15.1384C7.98605 14.2467 7.98605 12.3851 7.98605 12.3851C7.98605 12.3851 7.98605 10.5236 8.21474 9.63186C8.34185 9.13896 8.71365 8.75114 9.18454 8.62003C10.0412 8.38184 12.9902 8.38184 12.9902 8.38184C12.9902 8.38184 15.9406 8.38184 16.7958 8.62003C17.2687 8.75314 17.64 9.14046 17.7656 9.63186ZM11.9893 14.1366L14.9918 12.3851L11.9893 10.6337V14.1366Z" fill="#56CCF2"/>
</g>
<rect opacity="0.1" x="0.604919" width="24.3951" height="24.3951" rx="12.1975" fill="#56CCF2"/>
<defs>
<clipPath id="clip0_747_480">
<rect width="12.0099" height="12.0099" fill="white" transform="translate(6.98514 6.38037)"/>
</clipPath>
</defs>
</svg>
