<svg width="26" height="25" viewBox="0 0 26 25" fill="none" xmlns="http://www.w3.org/2000/svg">
<g clip-path="url(#clip0_747_474)">
<path d="M18.1741 9.21061C17.7921 9.37959 17.387 9.49058 16.9721 9.53988C17.4094 9.27838 17.7366 8.86683 17.8929 8.38193C17.4826 8.62613 17.0327 8.79727 16.5638 8.88985C16.2489 8.55286 15.8314 8.32937 15.3763 8.25411C14.9212 8.17886 14.454 8.25607 14.0474 8.47373C13.6407 8.69139 13.3173 9.03731 13.1275 9.45771C12.9377 9.87811 12.8922 10.3494 12.9979 10.7984C12.1657 10.7567 11.3517 10.5405 10.6086 10.1637C9.86542 9.78699 9.20982 9.25817 8.68433 8.61162C8.49832 8.9311 8.40057 9.29429 8.40109 9.66398C8.40109 10.3896 8.7704 11.0306 9.33186 11.4059C8.99959 11.3955 8.67464 11.3057 8.38408 11.1442V11.1702C8.38418 11.6535 8.5514 12.1218 8.85739 12.4958C9.16338 12.8699 9.58931 13.1266 10.063 13.2224C9.75451 13.306 9.43109 13.3183 9.11718 13.2584C9.25073 13.6744 9.51101 14.0382 9.86159 14.2988C10.2122 14.5595 10.6355 14.704 11.0723 14.7121C10.6382 15.0531 10.1411 15.3051 9.60953 15.4538C9.07794 15.6025 8.52226 15.645 7.97424 15.5788C8.93088 16.1941 10.0445 16.5207 11.1819 16.5196C15.0315 16.5196 17.1368 13.3305 17.1368 10.5647C17.1368 10.4746 17.1343 10.3836 17.1303 10.2945C17.54 9.99834 17.8937 9.63146 18.1746 9.21111L18.1741 9.21061Z" fill="#56CCF2"/>
</g>
<rect opacity="0.1" x="0.703705" width="24.3951" height="24.3951" rx="12.1975" fill="#56CCF2"/>
<defs>
<clipPath id="clip0_747_474">
<rect width="12.0099" height="12.0099" fill="white" transform="translate(7.08405 6.38037)"/>
</clipPath>
</defs>
</svg>
